<svg xmlns="http://www.w3.org/2000/svg" xmlns:xlink="http://www.w3.org/1999/xlink" width="230px" height="50px" viewBox="0 0 230 50" version="1.1">
    <title>service/placewncp_logo</title>
    <defs>
        <linearGradient x1="50.0055103%" y1="100.201288%" x2="50.0055103%" y2="1.76022966%" id="linearGradient-1">
            <stop stop-color="#03C75A" offset="0%"/>
            <stop stop-color="#00D1C9" offset="100%"/>
        </linearGradient>
        <linearGradient x1="49.2572404%" y1="25.5036643%" x2="50.7693692%" y2="75.6374663%" id="linearGradient-2">
            <stop stop-color="#117CE9" offset="0%"/>
            <stop stop-color="#51A7FF" stop-opacity="0.7" offset="100%"/>
        </linearGradient>
    </defs>
    <g id="logo정리" stroke="none" stroke-width="1" fill="none" fill-rule="evenodd">
        <g id="workplace_price_logo_0329" transform="translate(-505.000000, -188.000000)">
            <g id="service/placewncp_logo" transform="translate(505.000000, 188.000000)">
                <g transform="translate(2.000000, 3.000000)" fill-rule="nonzero">
                    <g id="Group" transform="translate(53.119988, 4.685486)">
                        <g id="Group-14" transform="translate(17.086755, 29.473230)" fill="#989C9E">
                            <polygon id="Path" points="6.70460326 8.14269635 5.41649504 8.14269635 1.62945689 2.81125453 1.62945689 8.14269635 1.52766688e-13 8.14269635 1.52766688e-13 0.135886865 1.57149202 0.135886865 5.10734907 5.19721945 5.10734907 0.135886865 6.7110438 0.135886865"/>
                            <path d="M12.3980416,0.135886865 L15.4572986,8.14269635 L13.7569957,8.14269635 L13.0356551,6.21334467 L10.0472441,6.21334467 L9.3452251,8.14269635 L7.67068442,8.14269635 L10.7428225,0.135886865 L12.3980416,0.135886865 Z M10.5689279,4.80491794 L12.5010902,4.80491794 L11.522128,2.14241262 L10.5689279,4.80491794 Z" id="Shape"/>
                            <polygon id="Path" points="18.033515 8.14269635 15.0257823 0.135886865 16.7904906 0.135886865 18.8643448 5.92394192 20.9446396 0.135886865 22.664264 0.135886865 19.6500908 8.14269635"/>
                            <polygon id="Path" points="29.0661619 0.135886865 29.0661619 1.59576297 25.2662426 1.59576297 25.2662426 3.34504183 28.7119321 3.34504183 28.7119321 4.76633091 25.2662426 4.76633091 25.2662426 6.69568259 29.0661619 6.69568259 29.0661619 8.16842104 23.6239047 8.16842104 23.6239047 0.135886865"/>
                            <path d="M32.0159297,5.15220124 L32.0159297,8.14269635 L30.3607106,8.14269635 L30.3607106,0.135886865 L33.6647082,0.135886865 C35.3456894,0.135886865 36.4727841,1.03625098 36.4727841,2.70835578 C36.5451602,3.84274603 35.7615308,4.85392079 34.6436704,5.068596 L36.7561679,8.17485221 L34.8755299,8.17485221 L32.8918433,5.1843571 L32.0159297,5.15220124 Z M32.0159297,3.78879272 L33.555219,3.78879272 C34.3924893,3.78879272 34.8433272,3.34504183 34.8433272,2.67619991 C34.8433272,2.007358 34.411811,1.55717594 33.555219,1.55717594 L32.0159297,1.55717594 L32.0159297,3.78879272 Z" id="Shape"/>
                            <path d="M43.7956793,0.00726341896 C45.450744,-0.10402378 46.9126887,1.07559887 47.1512012,2.71478695 L45.4959822,2.71478695 C45.2816772,1.96296153 44.5776823,1.45703557 43.7956793,1.49286422 C42.5075711,1.49286422 41.7604683,2.61188819 41.7604683,4.13607602 C41.7604683,5.66026385 42.5204522,6.785719 43.7956793,6.785719 C44.5839482,6.82176624 45.2912204,6.30545955 45.4959822,5.54450275 L47.1512012,5.54450275 C46.9310026,7.19916401 45.4637268,8.39996136 43.7956793,8.29061331 C41.6574197,8.29061331 40.066606,6.60564618 40.066606,4.15536954 C40.066606,1.7050929 41.6767413,0.00726341896 43.7956793,0.00726341896 Z" id="Path"/>
                            <polygon id="Path" points="48.3040581 0.135886865 49.9785987 0.135886865 49.9785987 6.6699579 53.7141126 6.6699579 53.7141126 8.14269635 48.3040581 8.14269635"/>
                            <path d="M57.9648697,8.29061331 C55.7364425,8.29061331 54.1778315,6.54133445 54.1778315,4.15536954 C54.1778315,1.76940462 55.7364425,0.0265569358 57.9648697,0.0265569358 C60.1932969,0.0265569358 61.7647889,1.75654228 61.7647889,4.15536954 C61.7647889,6.5541968 60.1997374,8.29061331 57.9648697,8.29061331 Z M57.9648697,1.51215773 C56.6767615,1.51215773 55.8781344,2.59259468 55.8781344,4.15536954 C55.8781344,5.7181444 56.6767615,6.785719 57.9648697,6.785719 C59.2529779,6.785719 60.0838077,5.70528206 60.0838077,4.13607602 C60.0838077,2.56686999 59.2529779,1.49286422 57.9648697,1.49286422 L57.9648697,1.51215773 Z" id="Shape"/>
                            <path d="M62.8081566,4.92067904 L62.8081566,0.135886865 L64.4826972,0.135886865 L64.4826972,4.75346856 C64.4826972,6.12330826 65.0816676,6.77285666 66.1379163,6.77285666 C67.194165,6.77285666 67.7995759,6.12973943 67.7995759,4.75346856 L67.7995759,0.135886865 L69.467676,0.135886865 L69.467676,4.92067904 C69.467676,7.12657113 68.1473651,8.2713198 66.1379163,8.2713198 C64.1284675,8.2713198 62.8081566,7.12657113 62.8081566,4.92067904 Z" id="Path"/>
                            <path d="M70.8845951,0.135886865 L73.7184331,0.135886865 C76.1529577,0.135886865 77.6793659,1.69866173 77.6793659,4.13607602 C77.6793659,6.57349032 76.1529577,8.14269635 73.7184331,8.14269635 L70.8845951,8.14269635 L70.8845951,0.135886865 Z M73.6540277,6.6699579 C75.1868765,6.6699579 76.0177063,5.69241971 76.0177063,4.13607602 C76.0177063,2.57973233 75.1868765,1.59576297 73.6540277,1.59576297 L72.5462547,1.59576297 L72.5462547,6.6699579 L73.6540277,6.6699579 Z" id="Shape"/>
                            <path d="M83.263315,5.36442993 L83.263315,8.14269635 L81.608096,8.14269635 L81.608096,0.135886865 L84.8670098,0.135886865 C86.5673126,0.135886865 87.6879667,1.04911333 87.6879667,2.75980515 C87.6879667,4.47049698 86.5673126,5.36442993 84.8670098,5.36442993 L83.263315,5.36442993 Z M84.7639611,1.55717594 L83.263315,1.55717594 L83.263315,3.94314085 L84.7639611,3.94314085 C85.2117325,3.97599155 85.6403083,3.75606691 85.874235,3.37340141 C86.1081616,2.99073591 86.1081616,2.50958089 85.874235,2.12691539 C85.6403083,1.74424989 85.2117325,1.52432524 84.7639611,1.55717594 L84.7639611,1.55717594 Z" id="Shape"/>
                            <polygon id="Path" points="88.8086209 0.135886865 90.4831616 0.135886865 90.4831616 6.6699579 94.2186754 6.6699579 94.2186754 8.14269635 88.8086209 8.14269635"/>
                            <path d="M99.5900866,0.135886865 L102.662225,8.14269635 L100.961922,8.14269635 L100.247022,6.21334467 L97.2521702,6.21334467 L96.5437107,8.14269635 L94.86917,8.14269635 L97.9348676,0.135886865 L99.5900866,0.135886865 Z M97.7674135,4.80491794 L99.6995758,4.80491794 L98.7206136,2.14241262 L97.7674135,4.80491794 Z" id="Shape"/>
                            <polygon id="Path" points="102.404603 0.135886865 109.244458 0.135886865 109.244458 1.59576297 106.668241 1.59576297 106.668241 8.14269635 104.98082 8.14269635 104.98082 1.59576297 102.404603 1.59576297"/>
                            <polygon id="Path" points="110.307147 8.14269635 110.307147 0.135886865 115.646356 0.135886865 115.646356 1.59576297 111.968807 1.59576297 111.968807 3.62801341 115.375853 3.62801341 115.375853 5.07502717 111.968807 5.07502717 111.968807 8.14269635"/>
                            <path d="M120.206259,8.29061331 C117.971391,8.29061331 116.41922,6.54133445 116.41922,4.15536954 C116.41922,1.76940462 117.971391,0.0265569358 120.206259,0.0265569358 C122.441126,0.0265569358 124.006178,1.75654228 124.006178,4.15536954 C124.006178,6.5541968 122.434686,8.29061331 120.206259,8.29061331 Z M120.206259,1.51215773 C118.91815,1.51215773 118.113083,2.59259468 118.113083,4.15536954 C118.113083,5.7181444 118.937472,6.80501252 120.206259,6.80501252 C121.475045,6.80501252 122.318756,5.72457558 122.318756,4.15536954 C122.318756,2.5861635 121.481486,1.49286422 120.206259,1.49286422 L120.206259,1.51215773 Z" id="Shape"/>
                            <path d="M126.820694,5.15220124 L126.820694,8.14269635 L125.165475,8.14269635 L125.165475,0.135886865 L128.469473,0.135886865 C130.150454,0.135886865 131.277549,1.03625098 131.277549,2.70835578 C131.333767,3.82883245 130.557383,4.82050084 129.454876,5.03644014 L131.567373,8.14269635 L129.686735,8.14269635 L127.703048,5.15220124 L126.820694,5.15220124 Z M126.820694,3.78879272 L128.366424,3.78879272 C129.197254,3.78879272 129.654532,3.34504183 129.654532,2.67619991 C129.654532,2.007358 129.223016,1.55717594 128.366424,1.55717594 L126.820694,1.55717594 L126.820694,3.78879272 Z" id="Shape"/>
                            <polygon id="Path" points="136.062871 8.14269635 134.079184 2.91415329 134.079184 8.14269635 132.514133 8.14269635 132.514133 0.135886865 134.497819 0.135886865 136.636079 5.78245613 138.767898 0.135886865 140.70006 0.135886865 140.70006 8.14269635 139.122128 8.14269635 139.122128 2.91415329 137.189965 8.14269635"/>
                        </g>
                        <polygon id="Path" fill="#333333" points="14.6457904 0.334420959 18.1945285 14.148579 21.5951342 0.334420959 25.8136886 0.334420959 20.4551585 20.8755852 16.5328689 20.8755852 12.9004038 7.32510523 9.28081969 20.8755852 5.36497072 20.8755852 -2.28813984e-14 0.334420959 4.32160306 0.334420959 7.67712496 14.148579 11.2902685 0.334420959"/>
                        <path d="M36.2151625,21.2100062 C30.4830809,21.2100062 26.496386,16.7081856 26.496386,10.6050031 C26.496386,4.5018206 30.4830809,0 36.2151625,0 C41.947244,0 45.9661417,4.45037122 45.9661417,10.6050031 C45.9661417,16.759635 41.947244,21.2100062 36.2151625,21.2100062 Z M36.2151625,3.84584102 C32.9948919,3.84584102 30.8566323,6.62410745 30.8566323,10.6371589 C30.8566323,14.6502105 32.9626892,17.4284769 36.2151625,17.4284769 C39.4676357,17.4284769 41.6445386,14.6502105 41.6445386,10.6371589 C41.6445386,6.62410745 39.4998384,3.81368516 36.2151625,3.81368516 L36.2151625,3.84584102 Z" id="Shape" fill="#333333"/>
                        <path d="M52.8639611,13.216059 L52.8639611,20.8755852 L48.6067635,20.8755852 L48.6067635,0.334420959 L57.0825156,0.334420959 C61.4041186,0.334420959 64.289481,2.64321181 64.289481,6.85562965 C64.289481,10.1355275 62.479689,12.2127962 59.5943266,12.9137939 L65.0237027,20.8755852 L60.1997374,20.8755852 L55.0859478,13.216059 L52.8639611,13.216059 Z M52.8639611,9.6982078 L56.8184534,9.6982078 C58.956713,9.6982078 60.0387239,8.56632148 60.0387239,6.85562965 C60.0387239,5.14493782 58.9309508,3.98089564 56.8184534,3.98089564 L52.8639611,3.98089564 L52.8639611,9.6982078 Z" id="Shape" fill="#333333"/>
                        <polygon id="Path" fill="#333333" points="71.41916 9.56958435 79.1478093 0.334420959 84.3388854 0.334420959 76.513628 9.53099732 84.6544719 20.8755852 79.4633958 20.8755852 73.3642034 12.4764742 71.4320411 14.7852651 71.4320411 20.8755852 67.1297596 20.8755852 67.1297596 0.334420959 71.41916 0.334420959"/>
                        <path d="M90.9146778,13.7498463 L90.9146778,20.8755852 L86.6445991,20.8755852 L86.6445991,0.334420959 L95.0173025,0.334420959 C99.3711083,0.334420959 102.25003,2.67536767 102.25003,7.06142716 C102.25003,11.4474867 99.3711083,13.7498463 95.0173025,13.7498463 L90.9146778,13.7498463 Z M94.7790025,3.98089564 L90.9146778,3.98089564 L90.9146778,10.1098028 L94.7790025,10.1098028 C96.9881081,10.1098028 98.0636784,8.82356837 98.0636784,7.06785833 C98.0636784,5.3121483 96.9494648,3.98089564 94.7661214,3.98089564 L94.7790025,3.98089564 Z" id="Shape" fill="#333333"/>
                        <polygon id="Path" fill="#333333" points="104.813365 0.334420959 109.102766 0.334420959 109.102766 17.0940559 118.686291 17.0940559 118.686291 20.8755852 104.813365 20.8755852"/>
                        <path d="M132.147022,0.334420959 L140.023804,20.8755852 L135.669998,20.8755852 L133.821562,15.8978579 L126.092913,15.8978579 L124.283121,20.8498605 L119.993721,20.8498605 L127.896265,0.334420959 L132.147022,0.334420959 Z M127.458308,12.3092637 L132.48193,12.3092637 L129.970119,5.48578995 L127.458308,12.3092637 Z" id="Shape" fill="#333333"/>
                        <path d="M149.761902,6.85443412e-15 C154.61807,6.85443412e-15 157.60004,2.84257815 158.372905,6.95852841 L154.115707,6.95852841 C153.413688,5.08705727 152.138461,3.81368516 149.761902,3.81368516 C146.477226,3.81368516 144.532182,6.68841917 144.532182,10.6050031 C144.532182,14.521587 146.464345,17.396321 149.761902,17.396321 C152.138461,17.396321 153.413688,16.1100866 154.115707,14.2193219 L158.372905,14.2193219 C157.60004,18.367428 154.61807,21.2100062 149.761902,21.2100062 C144.26812,21.2100062 140.178377,16.8946896 140.178377,10.6050031 C140.178377,4.3153166 144.274561,6.85443412e-15 149.761902,6.85443412e-15 Z" id="Path" fill="#333333"/>
                        <polygon id="Path" fill="#333333" points="174.880012 0.334420959 174.880012 4.0837944 165.141914 4.0837944 165.141914 8.58561499 173.984777 8.58561499 173.984777 12.2320897 165.141914 12.2320897 165.141914 17.1133494 174.880012 17.1133494 174.880012 20.8948787 160.904038 20.8948787 160.904038 0.334420959"/>
                    </g>
                    <path d="M18.3732691,44.217902 L1.22854873,32.2430592 C0.456694888,31.6827664 2.42542823e-13,30.7874517 2.42542823e-13,29.8345852 C2.42542823e-13,28.8817188 0.456694888,27.986404 1.22854873,27.4261112 L18.0383609,15.7792582 C19.5136879,14.7407543 21.4836073,14.7407543 22.9589343,15.7792582 L40.0907736,27.754101 C40.860188,28.3174243 41.3147692,29.2131046 41.3147692,30.1657906 C41.3147692,31.1184766 40.860188,32.0141569 40.0907736,32.5774802 L23.2938425,44.2243332 C21.8171545,45.2609099 19.8472344,45.2583352 18.3732691,44.217902 L18.3732691,44.217902 Z" id="Path" fill="url(#linearGradient-1)"/>
                    <path d="M18.3732691,29.2204083 L1.22854873,17.2455655 C0.456694888,16.6852726 2.42542823e-13,15.7899579 2.42542823e-13,14.8370915 C2.42542823e-13,13.884225 0.456694888,12.9889103 1.22854873,12.4286174 L18.0383609,0.781764442 C19.5124637,-0.260588147 21.4848316,-0.260588147 22.9589343,0.781764442 L40.0907736,12.7566072 C40.860188,13.3199305 41.3147692,14.2156109 41.3147692,15.1682968 C41.3147692,16.1209828 40.860188,17.0166631 40.0907736,17.5799864 L23.2938425,29.2268394 C21.8171545,30.2634162 19.8472344,30.2608415 18.3732691,29.2204083 Z" id="Path" fill="url(#linearGradient-2)"/>
                </g>
                <rect id="Rectangle" fill-opacity="0" fill="#FFFFFF" x="0" y="0" width="230" height="50"/>
            </g>
        </g>
    </g>
</svg>